<?xml version="1.0" encoding="utf-8"?>
<!-- Generator: Adobe Illustrator 23.1.0, SVG Export Plug-In . SVG Version: 6.00 Build 0)  -->
<svg version="1.1" id="圖層_1" xmlns="http://www.w3.org/2000/svg" xmlns:xlink="http://www.w3.org/1999/xlink" x="0px" y="0px"
	 viewBox="0 0 512 512" style="enable-background:new 0 0 512 512;" xml:space="preserve">
<style type="text/css">
	.st0{fill:#FFFFFF;}
	.st1{fill:#D6E5F6;}
	.st2{fill:#A4C6EC;}
	.st3{fill:#385C8E;}
	.st4{fill:#1D3366;}
</style>
<g>
	<circle class="st0" cx="256" cy="256" r="256"/>
	<g>
		<path class="st1" d="M421.5,365.5v7.3l-14.9,6.4L267,439l-11,4.7l-11-4.7l-139.8-59.9l-14.7-6.3v-7.3c0-0.4,0-1.7,0-3.6l49.1-67
			l6.8-40.5c0.5-33,27.5-59.7,60.7-59.7c20.1,0,37.9,9.8,48.9,24.8c0.3,0.3,0.5,0.7,0.7,1c11-15.6,29.2-25.8,49.7-25.8
			c33.1,0,60.2,26.7,60.7,59.7l6.8,40.6l47.6,67C421.5,363.9,421.5,365.1,421.5,365.5z"/>
		<path class="st2" d="M421.5,365.5v7.3l-14.9,6.4L267,439l-11,4.7V219.5c0.3,0.3,0.5,0.7,0.7,1c11-15.6,29.2-25.8,49.7-25.8
			c33.1,0,60.2,26.7,60.7,59.7l6.8,40.6l47.6,67C421.5,363.9,421.5,365.1,421.5,365.5z"/>
		<path class="st2" d="M294.6,385.4L267,401.1V439l-11,4.7l-11-4.7v-37.9l-27.5-15.7l10.9-19.2L256,382l27.6-15.8L294.6,385.4z"/>
		<path class="st3" d="M294.6,385.4L267,401.1V439l-11,4.7V382l27.6-15.8L294.6,385.4z"/>
		<path class="st3" d="M421.5,365.5v7.3l-14.9,6.4L353,303.6l-7.9-47.4v-0.9c0-21.3-17.3-38.6-38.6-38.6
			c-21.3,0-38.6,17.3-38.6,38.6v66h-22.1v-66c0-21.3-17.3-38.6-38.6-38.6s-38.6,17.3-38.6,38.6v0.9l-7.9,47.4l-55.3,75.4l-14.7-6.3
			v-7.3c0-0.4,0-1.7,0-3.6c0.2-19,1.8-105,16.9-150.8C91.3,163.6,112,86.4,112.9,83l4-14.8l98.2,65.5h81.6l98.2-65.5l4,14.8
			c0.9,3.4,21.6,80.6,5.5,128.1c15.2,45.9,16.8,132,16.9,150.9C421.5,363.9,421.5,365.1,421.5,365.5z"/>
		<path class="st4" d="M421.5,365.5v7.3l-14.9,6.4L353,303.6l-7.9-47.4v-0.9c0-21.3-17.3-38.6-38.6-38.6
			c-21.3,0-38.6,17.3-38.6,38.6v66H256V133.8h40.8l98.2-65.5l4,14.8c0.9,3.4,21.6,80.6,5.5,128.1c15.2,45.9,16.8,132,16.9,150.9
			C421.5,363.9,421.5,365.1,421.5,365.5z"/>
	</g>
</g>
</svg>
