<?xml version="1.0" encoding="utf-8"?>
<!-- Generator: Adobe Illustrator 23.1.0, SVG Export Plug-In . SVG Version: 6.00 Build 0)  -->
<svg version="1.1" id="Capa_1" xmlns="http://www.w3.org/2000/svg" xmlns:xlink="http://www.w3.org/1999/xlink" x="0px" y="0px"
	 viewBox="0 0 1024 397.8" style="enable-background:new 0 0 1024 397.8;" xml:space="preserve">
<style type="text/css">
	.st0{fill:#0B2239;}
	.st1{fill:#FFFFFF;}
</style>
<g>
	<g>
		<path class="st0" d="M667.3,0c-51.5,0-93.5,44.4-93.5,99.1s41.9,99.1,93.5,99.1s93.5-44.4,93.5-99.1S718.9,0,667.3,0z"/>
	</g>
</g>
<g>
	<g>
		<path class="st0" d="M879.8,14.2c-0.2,0-0.4,0-0.6,0c-21.6,0.2-41.8,9.3-56.9,25.7c-14.8,16.1-22.8,37.4-22.6,59.9
			s8.6,43.6,23.6,59.5c15.2,16,35.3,24.8,56.7,24.8c0.2,0,0.4,0,0.6,0c21.6-0.2,41.8-9.3,56.9-25.7c14.8-16.1,22.8-37.4,22.6-59.9
			C959.7,51.9,923.7,14.2,879.8,14.2z"/>
	</g>
</g>
<g>
	<g>
		<path class="st0" d="M883.7,200.3H876c-36.1,0-69.1,13.7-94,36.3c6.2,4.8,12.2,10,17.8,15.6c16.6,16.6,29.6,35.9,38.7,57.4
			c8.2,19.4,12.9,39.8,14,60.8H1024v-29.9C1024,263.2,961.1,200.3,883.7,200.3z"/>
	</g>
</g>
<g>
	<g>
		<path class="st0" d="M822.3,370.4c-2.8-45.6-25.9-85.7-60.4-111.4c-25.1-18.7-56.2-29.8-89.9-29.8h-9.3
			c-83.2,0-150.7,67.5-150.7,150.7v17.9h310.7v-17.9C822.7,376.7,822.5,373.5,822.3,370.4z"/>
	</g>
</g>
<g>
	<g>
		<path class="st1" d="M155.3,0c-51.5,0-93.5,44.4-93.5,99.1s41.9,99.1,93.5,99.1s93.5-44.4,93.5-99.1S206.9,0,155.3,0z"/>
	</g>
</g>
<g>
	<g>
		<path class="st1" d="M367.8,14.2c-0.2,0-0.4,0-0.6,0c-21.6,0.2-41.8,9.3-56.9,25.7c-14.8,16.1-22.8,37.4-22.6,59.9
			c0.2,22.5,8.6,43.6,23.6,59.5c15.2,16,35.3,24.8,56.7,24.8c0.2,0,0.4,0,0.6,0c21.6-0.2,41.8-9.3,56.9-25.7
			c14.8-16.1,22.8-37.4,22.6-59.9C447.7,51.9,411.7,14.2,367.8,14.2z"/>
	</g>
</g>
<g>
	<g>
		<path class="st1" d="M371.7,200.3H364c-36.1,0-69.1,13.7-94,36.3c6.2,4.8,12.2,10,17.8,15.6c16.6,16.6,29.6,35.9,38.7,57.4
			c8.2,19.4,12.9,39.8,14,60.8H512v-29.9C512,263.2,449.1,200.3,371.7,200.3z"/>
	</g>
</g>
<g>
	<g>
		<path class="st1" d="M310.4,370.4c-2.8-45.6-25.9-85.7-60.4-111.4c-25.1-18.7-56.2-29.8-89.9-29.8h-9.3
			C67.4,229.2,0,296.7,0,379.9v17.9h310.6v-17.9C310.6,376.7,310.5,373.5,310.4,370.4z"/>
	</g>
</g>
</svg>
