<?xml version="1.0" encoding="utf-8"?>
<!-- Generator: Adobe Illustrator 23.1.0, SVG Export Plug-In . SVG Version: 6.00 Build 0)  -->
<svg version="1.1" id="bold" xmlns="http://www.w3.org/2000/svg" xmlns:xlink="http://www.w3.org/1999/xlink" x="0px" y="0px"
	 viewBox="0 0 897.2 512" style="enable-background:new 0 0 897.2 512;" xml:space="preserve">
<style type="text/css">
	.st0{fill:#FFFFFF;}
	.st1{fill:#0B2239;}
</style>
<path class="st0" d="M400,192h-16v-64C384,57.4,326.6,0,256,0S128,57.4,128,128v64h-16c-26.5,0-48,21.5-48,48v224
	c0,26.5,21.5,48,48,48h288c26.5,0,48-21.5,48-48V240C448,213.5,426.5,192,400,192z M170.7,128c0-47.1,38.3-85.3,85.3-85.3
	S341.3,81,341.3,128v64H170.7V128z M277.3,356.7v48.6c0,11.8-9.5,21.3-21.3,21.3s-21.3-9.6-21.3-21.3v-48.6
	c-12.7-7.4-21.3-21-21.3-36.7c0-23.5,19.1-42.7,42.7-42.7s42.7,19.1,42.7,42.7C298.7,335.7,290,349.3,277.3,356.7z"/>
<path class="st1" d="M849.3,192h-16v-64c0-70.6-57.4-128-128-128s-128,57.4-128,128v64h-16c-26.5,0-48,21.5-48,48v224
	c0,26.5,21.5,48,48,48h288c26.5,0,48-21.5,48-48V240C897.3,213.5,875.8,192,849.3,192z M620,128c0-47.1,38.3-85.3,85.3-85.3
	S790.6,81,790.6,128v64H620V128z M726.6,356.7v48.6c0,11.8-9.5,21.3-21.3,21.3S684,417,684,405.3v-48.6c-12.7-7.4-21.3-21-21.3-36.7
	c0-23.5,19.1-42.7,42.7-42.7s42.7,19.1,42.7,42.7C748,335.7,739.3,349.3,726.6,356.7z"/>
</svg>
