<?xml version="1.0" encoding="utf-8"?>
<!-- Generator: Adobe Illustrator 23.1.0, SVG Export Plug-In . SVG Version: 6.00 Build 0)  -->
<svg version="1.1" id="圖層_1" xmlns="http://www.w3.org/2000/svg" xmlns:xlink="http://www.w3.org/1999/xlink" x="0px" y="0px"
	 viewBox="0 0 1086.8 637" style="enable-background:new 0 0 1086.8 637;" xml:space="preserve">
<style type="text/css">
	.st0{fill:#FFFFFF;}
	.st1{fill:#0B2239;}
</style>
<path class="st0" d="M313.3,296.5c35.6,0,64.5-29,64.5-64.6c0-35.6-29-64.5-64.6-64.5c-35.6,0-64.5,29-64.5,64.6
	C248.8,267.6,277.6,296.4,313.3,296.5z M313.3,192.4c21.9,0,39.6,17.7,39.6,39.6c0,21.9-17.7,39.6-39.6,39.6
	c-21.9,0-39.6-17.7-39.6-39.6C273.7,210.1,291.4,192.4,313.3,192.4z"/>
<path class="st0" d="M226.5,435.5H400c6.9,0,12.5-5.6,12.5-12.5c0-28.2-10.2-54.2-29-73.3c-18.5-18.8-43.8-29.4-70.2-29.4
	c-26.4,0-51.7,10.6-70.2,29.4c-18.7,19.1-29,45.1-29,73.3C214.1,429.9,219.7,435.5,226.5,435.5z M260.9,367.2
	c13.8-14,32.7-21.9,52.3-21.9c19.7,0,38.5,7.9,52.3,21.9c11.5,11.8,18.8,27,21,43.4H239.9C242.1,394.2,249.4,379,260.9,367.2z"/>
<path class="st0" d="M475.7,62.5H363.2v-30c0-6.9-5.6-12.5-12.5-12.5h-75c-6.9,0-12.5,5.6-12.5,12.5v30H150.8
	c-34.5,0-62.5,28-62.5,62.5v429.8c0,34.5,28,62.5,62.5,62.5h324.8c34.5,0,62.5-28,62.5-62.5V124.9C538.1,90.4,510.2,62.5,475.7,62.5
	z M288.3,45h50v50h-50V45z M513.1,554.7c-0.1,20.7-16.8,37.4-37.5,37.5H150.8c-20.7-0.1-37.4-16.8-37.5-37.5V124.9
	c0.1-20.7,16.8-37.4,37.5-37.5h112.4v20c0,6.9,5.6,12.5,12.5,12.5h75c6.9,0,12.5-5.6,12.5-12.5v-20h112.4
	c20.7,0.1,37.4,16.8,37.5,37.5V554.7z"/>
<path class="st0" d="M448.4,524.7H178.1c-6.9,0-12.5,5.6-12.5,12.5c0,6.9,5.6,12.5,12.5,12.5h270.5c6.9,0,12.5-5.7,12.4-12.6
	C461,530.3,455.3,524.7,448.4,524.7z"/>
<path class="st0" d="M240.5,469.8c-6.9,0-12.5,5.6-12.5,12.5c0,6.9,5.6,12.5,12.5,12.5h145.5c6.9,0,12.5-5.6,12.5-12.5
	c0-6.9-5.6-12.5-12.5-12.5H240.5z"/>
<path class="st1" d="M861.9,298.2c35.6,0,64.5-29,64.5-64.6c0-35.6-29-64.5-64.6-64.5c-35.6,0-64.5,29-64.5,64.6
	C797.4,269.4,826.3,298.2,861.9,298.2z M861.9,194.1c21.9,0,39.6,17.7,39.6,39.6c0,21.9-17.7,39.6-39.6,39.6
	c-21.9,0-39.6-17.7-39.6-39.6C822.3,211.9,840,194.2,861.9,194.1z"/>
<path class="st1" d="M775.2,437.3h173.4c6.9,0,12.5-5.6,12.5-12.5c0-28.2-10.2-54.2-29-73.3c-18.5-18.8-43.8-29.4-70.2-29.4
	s-51.7,10.6-70.2,29.4c-18.7,19.1-29,45.1-29,73.3C762.7,431.7,768.3,437.3,775.2,437.3z M809.5,368.9c13.8-14,32.7-21.9,52.3-21.9
	c19.7,0,38.5,7.9,52.3,21.9c11.5,11.8,18.8,27,21,43.4H788.5C790.7,395.9,798,380.7,809.5,368.9z"/>
<path class="st1" d="M1024.3,64.2H911.9v-30c0-6.9-5.6-12.5-12.5-12.5h-75c-6.9,0-12.5,5.6-12.5,12.5v30H699.5
	c-34.5,0-62.5,28-62.5,62.5v429.8c0,34.5,28,62.5,62.5,62.5h324.8c34.5,0,62.5-28,62.5-62.5V126.7
	C1086.7,92.2,1058.8,64.2,1024.3,64.2z M836.9,46.7h50v50h-50V46.7z M1061.8,556.5c-0.1,20.7-16.8,37.4-37.5,37.5H699.5
	c-20.7-0.1-37.4-16.8-37.5-37.5V126.7c0.1-20.7,16.8-37.4,37.5-37.5h112.4v20c0,6.9,5.6,12.5,12.5,12.5h75c6.9,0,12.5-5.6,12.5-12.5
	v-20h112.4c20.7,0.1,37.4,16.8,37.5,37.5V556.5z"/>
<path class="st1" d="M997.1,526.5H726.7c-6.9,0-12.5,5.6-12.5,12.5c0,6.9,5.6,12.5,12.5,12.5h270.5c6.9,0,12.5-5.7,12.4-12.6
	C1009.6,532,1004,526.4,997.1,526.5z"/>
<path class="st1" d="M789.2,471.5c-6.9,0-12.5,5.6-12.5,12.5c0,6.9,5.6,12.5,12.5,12.5h145.5c6.9,0,12.5-5.6,12.5-12.5
	c0-6.9-5.6-12.5-12.5-12.5H789.2z"/>
</svg>
