<?xml version="1.0" encoding="utf-8"?>
<!-- Generator: Adobe Illustrator 23.1.0, SVG Export Plug-In . SVG Version: 6.00 Build 0)  -->
<svg version="1.1" id="Capa_1" xmlns="http://www.w3.org/2000/svg" xmlns:xlink="http://www.w3.org/1999/xlink" x="0px" y="0px"
	 viewBox="0 0 1024 512" style="enable-background:new 0 0 1024 512;" xml:space="preserve">
<style type="text/css">
	.st0{fill:#0B2239;}
	.st1{fill:#FFFFFF;}
</style>
<g>
	<g>
		<path class="st0" d="M1020.9,478.7L872.1,330c28.2-34.8,45.2-79.1,45.2-127.3C917.3,90.9,826.4,0,714.7,0S512,90.9,512,202.7
			s90.9,202.7,202.7,202.7c48.2,0,92.5-17,127.3-45.2l148.7,148.7c4.2,4.2,10.9,4.2,15.1,0l15.1-15.1
			C1025,489.6,1025,482.9,1020.9,478.7z M714.7,362.7c-88.2,0-160-71.8-160-160s71.8-160,160-160s160,71.8,160,160
			S802.9,362.7,714.7,362.7z"/>
	</g>
</g>
<g>
	<g>
		<path class="st1" d="M508.9,478.7L360.1,330c28.2-34.8,45.2-79.1,45.2-127.3C405.3,90.9,314.4,0,202.7,0S0,90.9,0,202.7
			s90.9,202.7,202.7,202.7c48.2,0,92.5-17,127.3-45.2l148.7,148.7c4.2,4.2,10.9,4.2,15.1,0l15.1-15.1
			C513,489.6,513,482.9,508.9,478.7z M202.7,362.7c-88.2,0-160-71.8-160-160s71.8-160,160-160s160,71.8,160,160
			S290.9,362.7,202.7,362.7z"/>
	</g>
</g>
</svg>
