<?xml version="1.0" encoding="utf-8"?>
<!-- Generator: Adobe Illustrator 23.1.0, SVG Export Plug-In . SVG Version: 6.00 Build 0)  -->
<svg version="1.1" id="Capa_1" xmlns="http://www.w3.org/2000/svg" xmlns:xlink="http://www.w3.org/1999/xlink" x="0px" y="0px"
	 viewBox="0 0 736 368" style="enable-background:new 0 0 736 368;" xml:space="preserve">
<style type="text/css">
	.st0{fill:#0B2239;}
	.st1{fill:#FFFFFF;}
</style>
<g>
	<g>
		<path class="st0" d="M712,144h-30c-2.5-8.2-5.8-16.1-9.8-23.7l21.2-21.2c4.5-4.5,7-10.6,7-17c0-6.4-2.5-12.4-7-17l-22.6-22.6
			c-9-9-24.9-9.1-34,0l-21.2,21.2c-7.5-4-15.5-7.3-23.7-9.8V24c0-13.2-10.8-24-24-24h-32c-13.2,0-24,10.8-24,24v30
			c-8.2,2.5-16.1,5.8-23.7,9.8l-21.2-21.2c-9.4-9.4-24.6-9.4-34,0l-22.6,22.6c-9.4,9.4-9.4,24.6,0,34l21.2,21.2
			c-4,7.5-7.3,15.5-9.8,23.7H392c-13.2,0-24,10.8-24,24v32c0,13.2,10.8,24,24,24h30c2.5,8.2,5.8,16.1,9.8,23.7l-21.2,21.2
			c-9.4,9.4-9.4,24.6,0,34l22.6,22.6c9.4,9.4,24.6,9.4,34,0l21.2-21.2c7.5,4,15.5,7.3,23.7,9.8V344c0,13.2,10.8,24,24,24h32
			c13.2,0,24-10.8,24-24v-30c8.2-2.5,16.1-5.8,23.7-9.8l21.2,21.2c9.1,9.1,24.9,9,34,0l22.6-22.6c4.5-4.5,7-10.6,7-17
			c0-6.4-2.5-12.4-7-17l-21.2-21.2c4-7.5,7.3-15.5,9.8-23.7H712c13.2,0,24-10.8,24-24v-32C736,154.8,725.2,144,712,144z M720,200
			c0,4.4-3.6,8-8,8h-36c-3.6,0-6.8,2.5-7.7,6c-2.8,10.9-7.1,21.3-12.8,31c-1.8,3.1-1.3,7.1,1.2,9.7l25.4,25.4
			c1.5,1.5,2.3,3.5,2.3,5.7s-0.8,4.2-2.3,5.7l-22.6,22.6c-3,3-8.3,3-11.3,0l-25.4-25.4c-2.6-2.6-6.6-3.1-9.7-1.2
			c-9.6,5.7-20,10-31,12.8c-3.5,0.9-6,4.1-6,7.7v36c0,4.4-3.6,8-8,8h-32c-4.4,0-8-3.6-8-8v-36c0-3.6-2.5-6.8-6-7.7
			c-10.9-2.8-21.3-7.1-31-12.8c-1.3-0.8-2.7-1.1-4.1-1.1c-2.1,0-4.1,0.8-5.7,2.3l-25.4,25.4c-3.1,3.1-8.2,3.1-11.3,0l-22.6-22.6
			c-3.1-3.1-3.1-8.2,0-11.3l25.4-25.4c2.6-2.6,3.1-6.6,1.2-9.7c-5.7-9.6-10-20-12.8-31c-0.9-3.5-4.1-6-7.7-6h-36c-4.4,0-8-3.6-8-8
			v-32c0-4.4,3.6-8,8-8h36c3.6,0,6.8-2.5,7.7-6c2.8-10.9,7.1-21.3,12.8-31c1.9-3.1,1.4-7.1-1.2-9.7l-25.4-25.4
			c-3.1-3.1-3.1-8.2,0-11.3l22.6-22.6c3.1-3.1,8.2-3.1,11.3,0l25.4,25.4c2.6,2.6,6.6,3.1,9.7,1.2c9.6-5.7,20-10,31-12.8
			c3.5-0.9,6-4.1,6-7.7V24c0-4.4,3.6-8,8-8h32c4.4,0,8,3.6,8,8v36c0,3.6,2.5,6.8,6,7.7c10.9,2.8,21.4,7.1,31,12.8
			c3.2,1.9,7.2,1.4,9.7-1.2l25.4-25.4c3-3,8.3-3,11.3,0l22.6,22.6c1.5,1.5,2.3,3.5,2.3,5.7s-0.8,4.2-2.3,5.7l-25.4,25.4
			c-2.6,2.6-3.1,6.6-1.2,9.7c5.7,9.6,10,20,12.8,31c0.9,3.5,4.1,6,7.7,6h36c4.4,0,8,3.6,8,8V200z"/>
	</g>
</g>
<g>
	<g>
		<path class="st0" d="M552,112c-39.7,0-72,32.3-72,72s32.3,72,72,72c39.7,0,72-32.3,72-72S591.7,112,552,112z M552,240
			c-30.9,0-56-25.1-56-56s25.1-56,56-56c30.9,0,56,25.1,56,56S582.9,240,552,240z"/>
	</g>
</g>
<g>
	<g>
		<path class="st1" d="M344,144h-30c-2.5-8.2-5.8-16.1-9.8-23.7l21.2-21.2c4.5-4.5,7-10.6,7-17c0-6.4-2.5-12.4-7-17l-22.6-22.6
			c-9-9-24.9-9.1-34,0l-21.2,21.2c-7.5-4-15.5-7.3-23.7-9.8V24c0-13.2-10.8-24-24-24h-32c-13.2,0-24,10.8-24,24v30
			c-8.2,2.5-16.1,5.8-23.7,9.8L99.2,42.6c-9.4-9.4-24.6-9.4-34,0L42.6,65.2c-9.4,9.4-9.4,24.6,0,34l21.2,21.2
			c-4,7.5-7.3,15.5-9.8,23.7H24c-13.2,0-24,10.8-24,24v32c0,13.2,10.8,24,24,24h30c2.5,8.2,5.8,16.1,9.8,23.7l-21.2,21.2
			c-9.4,9.4-9.4,24.6,0,34l22.6,22.6c9.4,9.4,24.6,9.4,34,0l21.2-21.2c7.5,4,15.5,7.3,23.7,9.8V344c0,13.2,10.8,24,24,24h32
			c13.2,0,24-10.8,24-24v-30c8.2-2.5,16.1-5.8,23.7-9.8l21.2,21.2c9.1,9.1,24.9,9,34,0l22.6-22.6c4.5-4.5,7-10.6,7-17
			c0-6.4-2.5-12.4-7-17l-21.2-21.2c4-7.5,7.3-15.5,9.8-23.7H344c13.2,0,24-10.8,24-24v-32C368,154.8,357.2,144,344,144z M352,200
			c0,4.4-3.6,8-8,8h-36c-3.6,0-6.8,2.5-7.7,6c-2.8,10.9-7.1,21.3-12.8,31c-1.8,3.1-1.3,7.1,1.2,9.7l25.4,25.4
			c1.5,1.5,2.3,3.5,2.3,5.7s-0.8,4.2-2.3,5.7l-22.6,22.6c-3,3-8.3,3-11.3,0l-25.4-25.4c-2.6-2.6-6.6-3.1-9.7-1.2
			c-9.6,5.7-20,10-31,12.8c-3.5,0.9-6,4.1-6,7.7v36c0,4.4-3.6,8-8,8h-32c-4.4,0-8-3.6-8-8v-36c0-3.6-2.5-6.8-6-7.7
			c-10.9-2.8-21.3-7.1-31-12.8c-1.3-0.8-2.7-1.1-4.1-1.1c-2.1,0-4.1,0.8-5.7,2.3l-25.4,25.4c-3.1,3.1-8.2,3.1-11.3,0l-22.6-22.6
			c-3.1-3.1-3.1-8.2,0-11.3l25.4-25.4c2.6-2.6,3.1-6.6,1.2-9.7c-5.7-9.6-10-20-12.8-31c-0.9-3.5-4.1-6-7.7-6H24c-4.4,0-8-3.6-8-8
			v-32c0-4.4,3.6-8,8-8h36c3.6,0,6.8-2.5,7.7-6c2.8-10.9,7.1-21.3,12.8-31c1.9-3.1,1.4-7.1-1.2-9.7L53.9,87.9
			c-3.1-3.1-3.1-8.2,0-11.3l22.6-22.6c3.1-3.1,8.2-3.1,11.3,0l25.4,25.4c2.6,2.6,6.6,3.1,9.7,1.2c9.6-5.7,20-10,31-12.8
			c3.5-0.9,6-4.1,6-7.7V24c0-4.4,3.6-8,8-8h32c4.4,0,8,3.6,8,8v36c0,3.6,2.5,6.8,6,7.7c10.9,2.8,21.4,7.1,31,12.8
			c3.2,1.9,7.2,1.4,9.7-1.2l25.4-25.4c3-3,8.3-3,11.3,0l22.6,22.6c1.5,1.5,2.3,3.5,2.3,5.7s-0.8,4.2-2.3,5.7l-25.4,25.4
			c-2.6,2.6-3.1,6.6-1.2,9.7c5.7,9.6,10,20,12.8,31c0.9,3.5,4.1,6,7.7,6h36c4.4,0,8,3.6,8,8V200z"/>
	</g>
</g>
<g>
	<g>
		<path class="st1" d="M184,112c-39.7,0-72,32.3-72,72s32.3,72,72,72c39.7,0,72-32.3,72-72S223.7,112,184,112z M184,240
			c-30.9,0-56-25.1-56-56s25.1-56,56-56c30.9,0,56,25.1,56,56S214.9,240,184,240z"/>
	</g>
</g>
</svg>
